# xmcd
#
# Track frame offsets:
#	150
#	21074
#	34286
#	52221
#	69319
#	82359
#	97871
#	116174
#	134647
#	150607
#	167242
#
# Disc length: 2351 seconds
#
# Revision: 0
# Processed by: cddbd v1.5.1PL0 Copyright (c) Steve Scherf et al.
# Submitted via: AudioConverter v5.0 Copyright (c) AC Productions Ltd
#
DISCID=9b092d0b
DTITLE=Don Haney - Won't Take Me Long....Again
DYEAR=1998
DGENRE=Blues
TTITLE0=Twenty Dollar Shoes
TTITLE1=It's All Over Now
TTITLE2=Right On
TTITLE3=Two Headed Woman
TTITLE4=Won't Take Me Long
TTITLE5=Devil Got My Woman
TTITLE6=On and On
TTITLE7=Dirty Low Down and Bad
TTITLE8=Hey, Hey Baby
TTITLE9=For Stevie Ray
TTITLE10=Mary
EXTD=
EXTT0=
EXTT1=
EXTT2=
EXTT3=
EXTT4=
EXTT5=
EXTT6=
EXTT7=
EXTT8=
EXTT9=
EXTT10=
PLAYORDER=
